<?xml version="1.0" encoding="utf-8"?>
<!-- Generator: Adobe Illustrator 16.0.0, SVG Export Plug-In . SVG Version: 6.00 Build 0)  -->
<!DOCTYPE svg PUBLIC "-//W3C//DTD SVG 1.1//EN" "http://www.w3.org/Graphics/SVG/1.1/DTD/svg11.dtd">
<svg version="1.1" id="Layer_1" xmlns="http://www.w3.org/2000/svg" xmlns:xlink="http://www.w3.org/1999/xlink" x="0px" y="0px"
	 width="850.391px" height="850.39px" viewBox="0 0 850.391 850.39" enable-background="new 0 0 850.391 850.39"
	 xml:space="preserve">
<path display="none" fill="#0E7DD6" d="M714.576,251.099c56.997,113.995,284.985-127.494,284.985-127.494
	C833.069-176.379,777.573,89.107,777.573,89.107c-287.984-7.5-130.494,115.491-130.494,115.491L714.576,251.099z"/>
<image display="none" overflow="visible" enable-background="new    " width="806" height="605" xlink:href="BF2D8144.jpeg"  transform="matrix(2.3986 0 0 2.3966 -69.9993 -299.7817)">
</image>
<g>
	<path fill="#F15A29" d="M146.889,562.513c-0.841-0.707-1.412-1.613-1.929-2.617c-0.884-1.725-1.901-3.375-2.816-5.086
		c-1.305-2.451-2.532-4.949-3.861-7.389c-1.361-2.502-2.83-4.945-4.217-7.436c-0.903-1.627-1.698-3.316-2.595-4.947
		c-1.412-2.561-2.869-5.092-4.293-7.646c-0.534-0.961-1.024-1.959-1.553-2.926c-0.323-0.596-0.113-1.104,0.166-1.629
		c1.095-2.006,2.183-4.021,3.257-6.033c2.768-5.174,5.516-10.354,8.295-15.52c1.101-2.045,2.265-4.049,3.364-6.088
		c0.554-1.002,1.005-2.059,1.545-3.063c0.986-1.844,2.003-3.674,3.01-5.504c0.075-0.135,0.165-0.256,0.248-0.383
		c0.87-1.295,1.387-1.367,2.207-0.076c0.846,1.342,1.538,2.789,2.289,4.195c0.604,1.139,1.178,2.299,1.807,3.428
		c1.927,3.496,3.887,6.969,5.801,10.471c1.457,2.67,2.85,5.377,4.306,8.045c1.426,2.6,2.895,5.176,4.338,7.762
		c0.313,0.564,0.61,1.145,0.897,1.723c0.375,0.762,0.935,1.158,1.762,1.102c0.363-0.025,0.731,0,1.095,0
		c11.627,0,23.254,0.008,34.882,0c0.992,0,1.965,0.021,2.894,0.479c0.344,0.172,0.763,0.184,1.158,0.27
		c0.159,0.689-0.223,1.154-0.477,1.633c-1.14,2.154-2.31,4.297-3.474,6.436c-5.248,9.676-10.496,19.352-15.743,29.021
		c-0.323,0.602-0.674,1.189-1.018,1.781C174.45,562.513,160.672,562.513,146.889,562.513z"/>
	<path fill="#F15A29" d="M208.931,484.861c-6.087,0-12.175-0.037-18.263,0.031c-1.431,0.014-2.302-0.523-2.977-1.828
		c-1.113-2.164-2.36-4.252-3.519-6.398c-1.393-2.568-2.74-5.17-4.128-7.746c-1.183-2.211-2.397-4.406-3.594-6.609
		c-1.285-2.375-2.589-4.74-3.854-7.127c-1.189-2.256-2.36-4.525-3.512-6.803c-0.21-0.43-0.286-0.936-0.42-1.406
		c-0.102-0.32-0.127-0.73-0.324-0.945c-0.56-0.605-0.406-1.193-0.076-1.795c0.891-1.633,1.807-3.254,2.696-4.887
		c1.787-3.266,3.557-6.539,5.344-9.805c1.577-2.904,3.187-5.788,4.758-8.698c1.188-2.207,2.334-4.442,3.523-6.657
		c1.133-2.11,2.277-4.214,3.441-6.303c0.56-1.015,0.896-1.04,1.838-0.395c1.056,0.722,1.667,1.807,2.258,2.92
		c1.157,2.188,2.283,4.395,3.474,6.563c1.646,2.993,3.357,5.947,5.012,8.938c0.662,1.197,1.221,2.457,1.876,3.666
		c1.342,2.469,2.709,4.916,4.071,7.373c1.094,1.961,2.22,3.9,3.27,5.887c0.515,0.975,1.229,1.281,2.239,1.275
		c7.035-0.025,14.07-0.014,21.104-0.014c5.209,0,10.426-0.01,15.636,0.01c0.763,0,1.525,0.104,2.282,0.234
		c0.706,0.117,0.833,0.414,0.554,1.146c-0.171,0.422-0.381,0.832-0.599,1.236c-4.84,8.938-9.688,17.877-14.534,26.816
		c-1.635,3.012-3.25,6.033-4.885,9.049c-0.381,0.709-0.75,1.443-1.66,1.475c-1.105,1.027-2.455,0.793-3.752,0.795
		C220.45,484.869,214.694,484.861,208.931,484.861z"/>
	<path fill="#F15A29" d="M231.868,327.994c1.177,0.798,2.105,1.571,2.697,2.729c1.018,1.962,2.021,3.928,3.079,5.871
		c0.896,1.667,1.856,3.298,2.772,4.955c0.426,0.767,0.789,1.571,1.208,2.338c1.692,3.107,3.492,6.151,5.063,9.325
		c1.876,3.794,4.128,7.356,6.067,11.109c0.445,0.859,1.107,1.221,2.062,1.215c4.739-0.032,9.471-0.016,14.209-0.016
		c7.396,0,14.802,0.016,22.193-0.016c1.138-0.006,2.162,0.194,3.174,0.999c-0.159,0.347-0.299,0.731-0.49,1.088
		c-4.586,8.469-9.179,16.938-13.765,25.404c-1.902,3.518-3.798,7.039-5.706,10.546c-0.313,0.563-0.644,1.142-1.068,1.596
		c-0.77,0.817-1.692,1.189-2.843,1.184c-12.136-0.038-24.272-0.022-36.409-0.032c-0.502,0-1.011-0.092-1.521-0.111
		c-0.915-0.032-1.425-0.617-1.856-1.396c-1.794-3.26-3.62-6.504-5.413-9.764c-0.388-0.693-0.681-1.447-1.063-2.147
		c-1.654-2.996-3.353-5.957-4.975-8.972c-1.559-2.913-3.028-5.88-4.566-8.806c-0.655-1.247-1.349-2.468-2.073-3.67
		c-0.604-1.008-1.292-1.972-1.247-3.256c0-0.146-0.025-0.34-0.114-0.439c-0.757-0.868-0.272-1.632,0.153-2.404
		c3.064-5.613,6.131-11.224,9.19-16.84c3.479-6.386,6.939-12.782,10.413-19.168C231.27,328.888,231.55,328.494,231.868,327.994z"/>
	<path fill="#F15A29" d="M124.983,364.81c-0.573-1.049-1.12-2.042-1.654-3.041c-6.176-11.468-12.34-22.943-18.535-34.396
		c-0.471-0.871-0.502-1.533-0.013-2.426c1.94-3.495,3.778-7.051,5.674-10.572c1.394-2.576,2.843-5.117,4.236-7.687
		c1.361-2.51,2.672-5.044,4.025-7.557c0.599-1.101,1.279-2.156,1.876-3.257c1.234-2.274,2.494-4.535,3.633-6.857
		c0.444-0.91,1.018-1.138,1.907-1.135c6.597,0.025,13.192,0.016,19.788,0.016c6.597,0.003,13.192,0.019,19.789-0.019
		c0.999-0.01,1.59,0.314,2.093,1.25c2.92,5.397,5.902,10.747,8.835,16.125c1.818,3.339,3.582,6.72,5.406,10.06
		c1.388,2.531,2.831,5.021,4.243,7.541c0.388,0.7,0.75,1.412,1.075,2.146c0.445,1.015,0.172,1.628-0.871,1.889
		c-0.521,0.13-1.082,0.14-1.628,0.14c-12.098,0.009-24.196,0.048-36.294-0.038c-1.687-0.01-2.697,0.684-3.454,2.074
		c-1.711,3.139-3.377,6.307-5.069,9.458c-1.316,2.442-2.671,4.863-3.987,7.309c-1.539,2.84-3.047,5.706-4.593,8.545
		c-1.36,2.506-2.741,5.003-4.159,7.471c-0.413,0.716-0.979,1.33-1.488,1.981C125.593,364.123,125.339,364.396,124.983,364.81z"/>
	<path fill="#F15A29" d="M315.74,326.118c-1.088,0.55-2.036,0.935-3.136,0.935c-12.028-0.026-24.057-0.042-36.084,0.013
		c-1.527,0.009-2.494-0.633-3.193-1.931c-1.431-2.643-2.824-5.311-4.273-7.948c-1.915-3.505-3.874-6.981-5.782-10.485
		c-0.877-1.6-1.673-3.25-2.525-4.866c-0.617-1.177-1.271-2.334-1.915-3.498c-1.393-2.532-2.812-5.054-4.167-7.611
		c-0.324-0.62-0.477-1.361-0.624-2.067c-0.095-0.413,0.242-0.639,0.585-0.687c0.434-0.06,0.872-0.07,1.311-0.07
		c5.725-0.003,11.442-0.003,17.168-0.003c6.888,0,13.776,0.022,20.666-0.022c1.088-0.009,1.718,0.363,2.258,1.371
		c6.367,11.926,12.785,23.827,19.185,35.738C315.385,325.316,315.53,325.663,315.74,326.118z"/>
	<path fill="#F15A29" d="M126.045,366.667c0.655-0.544,1.297-0.855,2.056-0.891c0.361-0.016,0.725-0.013,1.087-0.013
		c12.136-0.003,24.271-0.003,36.409-0.003c0.331,0,0.654,0.013,0.985,0.006c0.802-0.019,1.336,0.343,1.743,1.116
		c1.253,2.35,2.601,4.643,3.854,6.99c1.457,2.716,2.843,5.474,4.293,8.193c1.105,2.077,2.258,4.131,3.396,6.189
		c0.693,1.262,1.431,2.506,2.105,3.781c1.532,2.888,3.047,5.792,4.554,8.691c0.172,0.331,0.343,0.709,0.369,1.075
		c0.038,0.607,0.209,1.088,0.571,1.571c0.521,0.716,0.255,1.225-0.616,1.278c-0.51,0.028-1.019-0.003-1.526-0.01
		c-9.656-0.096-19.317-0.185-28.973-0.285c-2.983-0.035-5.974-0.131-8.962-0.135c-0.859-0.003-1.381-0.271-1.819-1.1
		c-2.761-5.216-5.578-10.4-8.377-15.597c-3.467-6.437-6.933-12.871-10.4-19.308C126.528,367.723,126.306,367.205,126.045,366.667z"
		/>
</g>
<path display="none" fill="#F15A29" d="M674.001,186c0,0-84-209,82-156s226,44.39,256,73.695C1042.001,133,1134.749,234,832.374,380
	c0,0-222.373,55-189.373-127C643.001,253,673.001,209,674.001,186z"/>
<g enable-background="new    ">
	<path d="M503.967,351.092c5.993,4.161,8.992,8.198,8.992,12.113c0,2.325-1.408,5.569-4.221,9.728l-39.644,59.281v35.055
		c0,2.816-0.092,4.927-0.275,6.332c-0.183,1.408-0.766,3.028-1.743,4.864c-0.98,1.835-2.633,3.119-4.955,3.854
		c-2.326,0.734-5.446,1.102-9.361,1.102c-3.916,0-7.037-0.367-9.359-1.102c-2.326-0.734-3.979-2.047-4.955-3.945
		c-0.981-1.896-1.561-3.548-1.744-4.956c-0.184-1.405-0.275-3.579-0.275-6.516v-34.688l-39.644-59.281
		c-2.816-4.158-4.221-7.402-4.221-9.728c0-3.915,2.69-7.677,8.076-11.287c5.383-3.608,9.237-5.415,11.563-5.415
		c2.323,0,4.158,0.491,5.506,1.469c2.079,1.348,4.282,3.854,6.607,7.524l28.447,45.517l28.448-45.517
		c2.323-3.67,4.342-6.085,6.057-7.249c1.712-1.161,3.7-1.744,5.965-1.744C495.492,346.503,499.071,348.036,503.967,351.092z"/>
	<path d="M513.693,398.444c10.277-9.544,22.023-14.315,35.238-14.315s24.896,4.743,35.055,14.224
		c10.154,9.483,15.233,21.565,15.233,36.248c0,10.157-2.633,19.18-7.892,27.071c-5.263,7.892-11.654,13.705-19.18,17.436
		c-7.525,3.734-15.325,5.598-23.4,5.598c-8.076,0-15.908-1.987-23.492-5.965c-7.588-3.975-13.98-9.848-19.18-17.619
		c-5.202-7.769-7.801-16.547-7.801-26.337C498.275,420.101,503.415,407.988,513.693,398.444z M536.635,447.907
		c3.914,2.999,7.892,4.496,11.93,4.496c4.037,0,8.075-1.528,12.113-4.588c4.037-3.058,6.057-7.585,6.057-13.582
		c0-5.993-1.898-10.461-5.689-13.397c-3.795-2.937-7.893-4.405-12.297-4.405c-4.405,0-8.506,1.531-12.297,4.589
		c-3.795,3.06-5.689,7.556-5.689,13.489C530.761,440.445,532.717,444.91,536.635,447.907z"/>
	<path d="M672.447,470.94c-4.65,6.12-12.053,9.177-22.207,9.177c-10.157,0-19.67-4.68-28.539-14.04
		c-8.873-9.36-13.307-20.281-13.307-32.761c0-12.48,4.465-23.43,13.398-32.854c8.93-9.42,18.721-14.132,29.365-14.132
		c4.158,0,7.952,0.766,11.379,2.294c3.424,1.531,5.781,2.937,7.066,4.222c1.284,1.285,2.294,2.478,3.027,3.579
		c0.367-3.424,1.621-6.025,3.764-7.801c2.139-1.771,5.598-2.661,10.369-2.661s8.259,0.367,10.461,1.102
		c2.203,0.734,3.763,1.99,4.681,3.763c0.917,1.774,1.468,3.335,1.651,4.68c0.184,1.348,0.275,3.427,0.275,6.24v75.983
		c0,14.068-4.895,25.419-14.683,34.045c-9.79,8.627-20.802,12.939-33.036,12.939c-9.3,0-18.17-2.266-26.612-6.791
		c-8.442-4.527-12.664-8.626-12.664-12.297c0-4.771,1.835-8.993,5.507-12.663c2.322-2.569,4.129-4.345,5.414-5.323
		c1.284-0.98,2.781-1.468,4.496-1.468c1.712,0,3.487,0.734,5.322,2.202c5.873,4.525,12.234,6.791,19.088,6.791
		c4.648,0,8.442-1.835,11.379-5.506s4.404-8.076,4.404-13.215V470.94z M639.779,433.407c0,3.978,1.56,7.557,4.68,10.737
		c3.12,3.183,6.911,4.771,11.379,4.771c4.465,0,8.168-1.62,11.104-4.863c2.938-3.24,4.405-6.791,4.405-10.646
		c0-3.854-1.408-7.461-4.222-10.828c-2.815-3.363-6.607-5.047-11.379-5.047s-8.626,1.651-11.563,4.955
		S639.779,429.432,639.779,433.407z"/>
	<path d="M748.705,368.436c-0.918,1.775-2.541,3.028-4.863,3.763c-2.326,0.734-5.414,1.101-9.27,1.101
		c-3.854,0-6.945-0.366-9.268-1.101c-2.326-0.734-3.946-2.019-4.863-3.854c-0.918-1.835-1.469-3.455-1.652-4.863
		c-0.184-1.405-0.275-3.516-0.275-6.332c0-2.813,0.092-4.924,0.275-6.332c0.184-1.405,0.703-2.965,1.561-4.68
		c1.711-3.304,6.483-4.956,14.314-4.956c7.709,0,12.357,1.652,13.949,4.956c0.979,1.835,1.561,3.458,1.744,4.863
		c0.184,1.408,0.275,3.519,0.275,6.332c0,2.815-0.092,4.927-0.275,6.332C750.174,365.073,749.623,366.664,748.705,368.436z
		 M718.513,402.482c0-2.813,0.092-4.924,0.275-6.332c0.184-1.405,0.703-3.028,1.561-4.864c1.711-3.18,6.483-4.771,14.314-4.771
		c5.873,0,10.031,1.041,12.48,3.12c2.08,1.715,3.181,4.345,3.305,7.892c0.12,1.225,0.184,3,0.184,5.323v64.236
		c0,2.816-0.092,4.927-0.275,6.332c-0.184,1.408-0.766,3.028-1.744,4.864c-1.592,3.183-6.303,4.771-14.132,4.771
		c-7.708,0-12.421-1.651-14.132-4.955c-0.857-1.836-1.377-3.425-1.561-4.772c-0.184-1.345-0.275-3.487-0.275-6.424V402.482z"/>
</g>
</svg>
